<svg width="64" height="64" viewBox="0 0 64 64" fill="none" xmlns="http://www.w3.org/2000/svg">
  <!-- crosshair target -->
  <circle cx="36" cy="32" r="18" stroke="#5B9BE0" stroke-width="3.5"/>
  <circle cx="36" cy="32" r="9" stroke="#BFE3DD" stroke-width="3.5"/>
  <circle cx="36" cy="32" r="2.2" fill="#5B9BE0"/>
  <line x1="36" y1="8" x2="36" y2="16" stroke="#5B9BE0" stroke-width="3.5" stroke-linecap="round"/>
  <line x1="36" y1="48" x2="36" y2="56" stroke="#5B9BE0" stroke-width="3.5" stroke-linecap="round"/>
  <line x1="12" y1="32" x2="20" y2="32" stroke="#5B9BE0" stroke-width="3.5" stroke-linecap="round"/>
  <line x1="52" y1="32" x2="60" y2="32" stroke="#5B9BE0" stroke-width="3.5" stroke-linecap="round"/>

  <!-- blob mascot -->
  <path d="M6 26
           C6 17 12 11 19 11
           C26 11 32 17 32 26
           C32 30 30 33 28 35
           C26 38 24 34 22 36
           C20 38 18 34 16 36
           C14 38 12 34 10 36
           C8 33 6 30 6 26 Z" fill="#8FE3D3" stroke="#3F5E66" stroke-width="1.2" stroke-linejoin="round"/>
  <!-- eyes -->
  <circle cx="14" cy="24" r="2" fill="#2D2D2D"/>
  <circle cx="24" cy="24" r="2" fill="#2D2D2D"/>
  <!-- blush -->
  <circle cx="11" cy="28" r="2.2" fill="#FFB6C1" opacity="0.8"/>
  <circle cx="27" cy="28" r="2.2" fill="#FFB6C1" opacity="0.8"/>

  <!-- telescope -->
  <rect x="24" y="20" width="20" height="6" rx="3" fill="#5B9BE0" stroke="#3F5E66" stroke-width="1" transform="rotate(38 24 23)"/>
  <rect x="24" y="20" width="6" height="6" rx="3" fill="#3E7BC4" transform="rotate(38 24 23)"/>
</svg>
