<svg width="360" height="72" viewBox="0 0 360 72" fill="none" xmlns="http://www.w3.org/2000/svg">
  <defs>
    <linearGradient id="posscopeGradient" x1="0" y1="0" x2="1" y2="0">
      <stop offset="0" stop-color="#2196F3"/>
      <stop offset="1" stop-color="#4FC3F7"/>
    </linearGradient>
  </defs>

  <!-- crosshair target -->
  <circle cx="40" cy="32" r="18" stroke="#2196F3" stroke-width="3.5"/>
  <circle cx="40" cy="32" r="9" stroke="#90CAF9" stroke-width="3.5"/>
  <circle cx="40" cy="32" r="2.2" fill="#2196F3"/>
  <line x1="40" y1="8" x2="40" y2="16" stroke="#2196F3" stroke-width="3.5" stroke-linecap="round"/>
  <line x1="40" y1="48" x2="40" y2="56" stroke="#2196F3" stroke-width="3.5" stroke-linecap="round"/>
  <line x1="16" y1="32" x2="24" y2="32" stroke="#2196F3" stroke-width="3.5" stroke-linecap="round"/>
  <line x1="56" y1="32" x2="64" y2="32" stroke="#2196F3" stroke-width="3.5" stroke-linecap="round"/>

  <!-- blob mascot -->
  <path d="M10 26
           C10 17 16 11 23 11
           C30 11 36 17 36 26
           C36 30 34 33 32 35
           C30 38 28 34 26 36
           C24 38 22 34 20 36
           C18 38 16 34 14 36
           C12 33 10 30 10 26 Z" fill="#8FE3D3"/>
  <!-- eyes -->
  <circle cx="18" cy="24" r="2" fill="#2D2D2D"/>
  <circle cx="28" cy="24" r="2" fill="#2D2D2D"/>
  <!-- blush -->
  <circle cx="15" cy="28" r="2.2" fill="#FFB6C1" opacity="0.8"/>
  <circle cx="31" cy="28" r="2.2" fill="#FFB6C1" opacity="0.8"/>

  <!-- telescope -->
  <rect x="28" y="20" width="20" height="6" rx="3" fill="#2196F3" transform="rotate(38 28 23)"/>
  <rect x="28" y="20" width="6" height="6" rx="3" fill="#1976D2" transform="rotate(38 28 23)"/>

  <!-- wordmark -->
  <text x="86" y="42" font-family="Arial, Helvetica, sans-serif" font-size="32" font-weight="800" letter-spacing="2" fill="url(#posscopeGradient)">POSSCOPE</text>
  <text x="87" y="60" font-family="Arial, Helvetica, sans-serif" font-size="11" font-weight="700" letter-spacing="1.5" fill="#5B6472">KCP POS MANAGEMENT &amp; OVERVIEW</text>
</svg>
